<svg id="Layer_1" data-name="Layer 1" xmlns="http://www.w3.org/2000/svg" width="25.6" height="56.5" viewBox="0 0 25.6 56.5">
  <defs>
    <style>
      .cls-1 {
        fill: #005aa9;
      }

      .cls-2 {
        fill: #a3def9;
      }

      .cls-3 {
        fill: #bce6fb;
      }

      .cls-4 {
        fill: #fff;
      }
    </style>
  </defs>
  <title>bee</title>
  <g>
    <g>
      <path class="cls-1" d="M9.51,3.58a1.91,1.91,0,0,0,1.24-2.39A2.68,2.68,0,0,0,8,.52,2.6,2.6,0,0,0,7.15,1,1.91,1.91,0,0,0,9.51,3.58Z"/>
      <path class="cls-2" d="M7,12.46C7,12.31,7,12.18,7,12s0-.24,0-0.36a8.47,8.47,0,0,0-3.17.11C1.27,12.32-.5,14,0.13,16s3.11,2.65,5.44,1.67a6.57,6.57,0,0,0,3-2.38,4.38,4.38,0,0,1-1-1.27A6,6,0,0,1,7,12.46Z"/>
      <path class="cls-3" d="M14.57,5.37a2.59,2.59,0,0,0,.53-0.12,2.7,2.7,0,0,0,1.72-3.4A2.67,2.67,0,0,0,16.16.8a1.93,1.93,0,0,1-1.23,2.4A1.94,1.94,0,0,1,12.49,2,2,2,0,0,1,12.56.61a2.69,2.69,0,0,0-.21,4,4.4,4.4,0,0,1,2,.63Z"/>
      <path class="cls-3" d="M11.1,4.56a2.66,2.66,0,0,0-.35-3.37A1.92,1.92,0,1,1,7.15,1,2.69,2.69,0,0,0,8.72,5.77l0.41-.36A4.58,4.58,0,0,1,11.1,4.56Z"/>
      <path class="cls-2" d="M7.38,7.62l0-.06a5.46,5.46,0,0,1,.75-1.2c-0.32-.23-2.68-1.87-4.86-1C0.62,6.49.56,11,4.19,11.19a12.87,12.87,0,0,0,2.68-.11,10.16,10.16,0,0,1,0-1.47A7,7,0,0,1,7.38,7.62Z"/>
      <path class="cls-2" d="M24.28,14.69c0.4-2-1.54-3.55-4.07-3.79a8.74,8.74,0,0,0-3,.18c0,0.14,0,.28,0,0.41s0,0.27,0,.4a6.16,6.16,0,0,1-.38,1.65A4.13,4.13,0,0,1,15.87,15a6.6,6.6,0,0,0,3.18,1.94C21.49,17.66,23.89,16.71,24.28,14.69Z"/>
      <path class="cls-2" d="M16.35,7.12A6.83,6.83,0,0,1,17,9.07a10.71,10.71,0,0,1,.19,1.46,12.83,12.83,0,0,0,2.51-.18c3.59-.63,3-5.07.25-5.88-2-.58-4,0.87-4.58,1.37a4.43,4.43,0,0,1,.93,1.24Z"/>
      <path class="cls-1" d="M14.92,3.2A1.93,1.93,0,0,0,16.16.8a2.68,2.68,0,0,0-3.6-.19A2,2,0,0,0,12.49,2,1.94,1.94,0,0,0,14.92,3.2Z"/>
      <path class="cls-1" d="M15.39,5.84a5.26,5.26,0,0,0-.78-0.56l-0.24-.15a4.46,4.46,0,0,0-2-.64,6.08,6.08,0,0,0-.68,0,5,5,0,0,0-.61.08,4.58,4.58,0,0,0-2,.86l-0.41.36a6.39,6.39,0,0,0-.55.58,5.46,5.46,0,0,0-.75,1.2l0.74,0,7.23-.39,0.94,0A4.43,4.43,0,0,0,15.39,5.84Z"/>
      <path class="cls-1" d="M16.79,13.55l-1.63.09L9.07,14,7.59,14a4.38,4.38,0,0,0,1,1.27c0.15,0.13.3,0.23,0.42,0.31a11.28,11.28,0,0,1,2.34,1.44A9.63,9.63,0,0,1,12.1,19a0.46,0.46,0,0,0,.41.27h0a0.47,0.47,0,0,0,.38-0.31,9.29,9.29,0,0,1,.53-2,10.83,10.83,0,0,1,2.16-1.69A3.16,3.16,0,0,0,15.87,15,4.13,4.13,0,0,0,16.79,13.55Z"/>
      <path class="cls-1" d="M17.2,11.08c0-.19,0-0.37,0-0.55A10.71,10.71,0,0,0,17,9.07l-1.31.07-7.64.41-1.14.06a10.16,10.16,0,0,0,0,1.47c0,0.2,0,.4,0,0.6s0,0.24,0,.36L7.89,12l8.22-.44,1.09-.06C17.2,11.36,17.2,11.22,17.2,11.08Z"/>
      <path class="cls-4" d="M16.35,7.12l0,0-0.94,0-7.23.39-0.74,0,0,0.06a7,7,0,0,0-.46,2l1.14-.06,7.64-.41L17,9.07A6.83,6.83,0,0,0,16.35,7.12Z"/>
      <path class="cls-4" d="M17.17,11.9c0-.13,0-0.27,0-0.4l-1.09.06L7.89,12,7,12c0,0.13,0,.27.07,0.41A6,6,0,0,0,7.59,14L9.07,14l6.09-.33,1.63-.09A6.16,6.16,0,0,0,17.17,11.9Z"/>
    </g>
    <g>
      <path class="cls-1" d="M13.57,23a0.76,0.76,0,1,1,.11-1.06A0.75,0.75,0,0,1,13.57,23Z"/>
      <circle class="cls-1" cx="14.48" cy="25.37" r="0.76" transform="translate(-12.83 14.99) rotate(-39.47)"/>
      <path class="cls-1" d="M15.92,29a0.76,0.76,0,0,1-1.06-.11,0.76,0.76,0,0,1,1.17-1A0.76,0.76,0,0,1,15.92,29Z"/>
      <circle class="cls-1" cx="15.75" cy="31.51" r="0.76" transform="translate(-16.4 17.1) rotate(-39.3)"/>
      <path class="cls-1" d="M16.24,35.43a0.76,0.76,0,1,1,.11-1.06A0.76,0.76,0,0,1,16.24,35.43Z"/>
      <path class="cls-1" d="M16.44,38.74a0.76,0.76,0,1,1,.11-1.06A0.75,0.75,0,0,1,16.44,38.74Z"/>
      <path class="cls-1" d="M17.15,42a0.76,0.76,0,1,1,.1-1.07A0.76,0.76,0,0,1,17.15,42Z"/>
      <path class="cls-1" d="M19.1,44.37a0.76,0.76,0,0,1-1-1.17A0.76,0.76,0,0,1,19.1,44.37Z"/>
      <path class="cls-1" d="M22.17,45.49a0.76,0.76,0,0,1-1-1.17A0.76,0.76,0,0,1,22.17,45.49Z"/>
      <path class="cls-1" d="M25,44.5a0.76,0.76,0,1,1-1-1.17,0.77,0.77,0,0,1,1.06.11A0.75,0.75,0,0,1,25,44.5Z"/>
      <path class="cls-1" d="M25.33,41.51a0.76,0.76,0,1,1,.1-1.06A0.75,0.75,0,0,1,25.33,41.51Z"/>
      <path class="cls-1" d="M22.93,39.35A0.76,0.76,0,1,1,23,38.29,0.75,0.75,0,0,1,22.93,39.35Z"/>
      <circle class="cls-1" cx="19.33" cy="39.29" r="0.75" transform="translate(-20.52 21.14) rotate(-39.32)"/>
      <circle class="cls-1" cx="15.89" cy="44.62" r="0.76" transform="translate(-24.62 20.08) rotate(-39.19)"/>
      <circle class="cls-1" cx="15.91" cy="47.88" r="0.75" transform="translate(-26.69 20.84) rotate(-39.22)"/>
      <path class="cls-1" d="M17,51.63a0.75,0.75,0,0,1-1.06-.1,0.76,0.76,0,1,1,1.17-1A0.75,0.75,0,0,1,17,51.63Z"/>
      <circle class="cls-1" cx="17.88" cy="53.86" r="0.76" transform="translate(-30.05 23.46) rotate(-39.25)"/>
      <path class="cls-1" d="M21.16,56.33a0.76,0.76,0,0,1-1-1.17,0.76,0.76,0,0,1,1.06.11A0.75,0.75,0,0,1,21.16,56.33Z"/>
    </g>
  </g>
</svg>
