<svg id="Layer_1" data-name="Layer 1" xmlns="http://www.w3.org/2000/svg" width="34.46" height="61.02" viewBox="0 0 34.46 61.02">
  <defs>
    <style>
      .cls-1 {
        fill: #005aa9;
      }

      .cls-2 {
        fill: #a3def9;
      }

      .cls-3 {
        fill: #fff;
      }
    </style>
  </defs>
  <title>butterfly</title>
  <g>
    <g>
      <path class="cls-1" d="M23.51,54.27A0.83,0.83,0,0,1,24,54.12a0.56,0.56,0,0,1,.44.52,0.63,0.63,0,0,1-.21.48,0.7,0.7,0,0,1-.54.15A1.1,1.1,0,0,1,23.34,55,0.71,0.71,0,0,1,23.51,54.27Z"/>
      <path class="cls-1" d="M24.59,56.83a0.75,0.75,0,0,1,.65-0.2,0.71,0.71,0,0,1,.32.47,0.62,0.62,0,0,1-.21.48,0.74,0.74,0,0,1-.56.09,0.56,0.56,0,0,1-.27-0.19A0.58,0.58,0,0,1,24.59,56.83Z"/>
      <path class="cls-1" d="M23,51.57a0.9,0.9,0,0,1,.61-0.31,0.5,0.5,0,0,1,.41.2,0.53,0.53,0,0,1,.1.43c-0.09,0,0,.11,0,0.18a0.75,0.75,0,0,1-.45.38A0.68,0.68,0,0,1,23,52.19,0.71,0.71,0,0,1,23,51.57Z"/>
      <path class="cls-1" d="M26.73,58.76a0.59,0.59,0,0,1,.51-0.23,0.53,0.53,0,0,1,.47.51,0.47,0.47,0,0,1-.18.47,0.73,0.73,0,0,1-.63.09A0.51,0.51,0,0,1,26.73,58.76Z"/>
      <path class="cls-1" d="M23.43,49a0.62,0.62,0,0,1,.58-0.3,0.66,0.66,0,0,1,.41.2,0.65,0.65,0,0,1,0,.61,0.87,0.87,0,0,1-.6.34,0.48,0.48,0,0,1-.42-0.23A0.6,0.6,0,0,1,23.43,49Z"/>
      <path class="cls-1" d="M21.28,41.48a0.62,0.62,0,0,1,.57-0.4,0.41,0.41,0,0,1,.31.11,0.63,0.63,0,0,1,.14.51,0.75,0.75,0,0,1-.41.46,0.61,0.61,0,0,1-.5-0.1A0.59,0.59,0,0,1,21.28,41.48Z"/>
      <path class="cls-1" d="M22.7,43.2a1.39,1.39,0,0,1,.52-0.11,0.52,0.52,0,0,1,.37.51,0.55,0.55,0,0,1-.27.47A0.66,0.66,0,0,1,22.63,44,0.75,0.75,0,0,1,22.7,43.2Z"/>
      <path class="cls-1" d="M29.3,60.29a0.69,0.69,0,0,1,.42-0.37,0.51,0.51,0,0,1,.57.1,0.48,0.48,0,0,1,.17.5,0.67,0.67,0,0,1-.27.41,0.79,0.79,0,0,1-.61,0A0.65,0.65,0,0,1,29.3,60.29Z"/>
      <path class="cls-1" d="M24.45,46.82a0.67,0.67,0,0,1,.43-0.34,0.72,0.72,0,0,1,.5.17,0.45,0.45,0,0,1,.09.49,0.47,0.47,0,0,1-.34.4,0.63,0.63,0,0,1-.68-0.13A0.73,0.73,0,0,1,24.45,46.82Z"/>
      <path class="cls-1" d="M21.6,39.29a0.72,0.72,0,0,1,.67-0.4,0.54,0.54,0,0,1,.46.41,0.56,0.56,0,0,1-.15.53A0.66,0.66,0,0,1,22,40a0.75,0.75,0,0,1-.38-0.28A0.83,0.83,0,0,1,21.6,39.29Z"/>
      <path class="cls-1" d="M25.08,43.34a0.86,0.86,0,0,1,.69-0.11,0.65,0.65,0,0,1,.3.51,0.68,0.68,0,0,1-.37.48,0.5,0.5,0,0,1-.57-0.1,0.52,0.52,0,0,1-.22-0.38A0.73,0.73,0,0,1,25.08,43.34Z"/>
      <path class="cls-1" d="M26.25,44.93a0.73,0.73,0,0,1,.63-0.42,0.7,0.7,0,0,1,.49.57,1.07,1.07,0,0,1-.24.46,1.28,1.28,0,0,1-.59.1A0.61,0.61,0,0,1,26.25,44.93Z"/>
      <path class="cls-1" d="M24.11,38.85a0.72,0.72,0,0,1,.69-0.27,0.54,0.54,0,0,1,.3.27,0.62,0.62,0,0,1,0,.5,0.74,0.74,0,0,1-.58.37,0.71,0.71,0,0,1-.42-0.23A0.85,0.85,0,0,1,24.11,38.85Z"/>
      <path class="cls-1" d="M26,40.41a1,1,0,0,1,.5-0.17,0.46,0.46,0,0,1,.38.28,0.63,0.63,0,0,1-.09.67,0.57,0.57,0,0,1-.58.13,0.47,0.47,0,0,1-.29-0.21A0.65,0.65,0,0,1,26,40.41Z"/>
      <path class="cls-1" d="M26.9,42.58a0.52,0.52,0,0,1,.51-0.3,0.5,0.5,0,0,1,.44.36,0.68,0.68,0,0,1-.2.58,0.53,0.53,0,0,1-.53.08A0.5,0.5,0,0,1,26.9,42.58Z"/>
      <path class="cls-1" d="M28.19,39.9a0.68,0.68,0,0,1,.45-0.21,0.53,0.53,0,0,1,.48.37,0.44,0.44,0,0,1-.07.49,0.51,0.51,0,0,1-.4.26,0.62,0.62,0,0,1-.56-0.31A0.55,0.55,0,0,1,28.19,39.9Z"/>
      <path class="cls-1" d="M24.12,27.65a0.56,0.56,0,0,1,.58-0.3,0.76,0.76,0,0,1,.42.4,0.55,0.55,0,0,1-.16.53,0.58,0.58,0,0,1-.55.12A0.53,0.53,0,0,1,24.12,27.65Z"/>
      <path class="cls-1" d="M28.42,37.32A0.64,0.64,0,0,1,29,37a0.59,0.59,0,0,1,.44.36,0.54,0.54,0,0,1-.11.54,0.47,0.47,0,0,1-.5.17A0.53,0.53,0,0,1,28.42,37.32Z"/>
      <path class="cls-1" d="M25.81,29.39a0.71,0.71,0,0,1,.47-0.16,0.53,0.53,0,0,1,.42.56,0.43,0.43,0,0,1-.46.42,0.63,0.63,0,0,1-.51-0.29A0.48,0.48,0,0,1,25.81,29.39Z"/>
      <path class="cls-1" d="M28.18,34.33a0.48,0.48,0,0,1,.46-0.18,0.54,0.54,0,0,1,.43.33,0.68,0.68,0,0,1-.18.63,0.52,0.52,0,0,1-.47.06A0.54,0.54,0,0,1,28.18,34.33Z"/>
      <path class="cls-1" d="M27.05,31.82a0.58,0.58,0,0,1,.51-0.37,0.54,0.54,0,0,1,.41.2,0.62,0.62,0,0,1,.11.52,0.64,0.64,0,0,1-.36.34,0.5,0.5,0,0,1-.49-0.14A0.65,0.65,0,0,1,27.05,31.82Z"/>
    </g>
    <g>
      <path class="cls-1" d="M6.89,9.4a0.81,0.81,0,0,1,.06-0.62,0.78,0.78,0,0,1,.47-0.39,1.11,1.11,0,0,1,1.4.73,1.5,1.5,0,0,1-1,1.88A2,2,0,0,1,5.35,9.69,2.58,2.58,0,0,1,7,6.46c1.7-.53,2.93.25,4.89,2.07l3.79,4.05h0A0.42,0.42,0,0,0,16.33,12h0L12.52,7.93c-1.86-1.74-3.45-3-5.74-2.28A3.42,3.42,0,0,0,4.55,9.95a2.82,2.82,0,0,0,3.54,1.85A2.34,2.34,0,0,0,9.62,8.85,2,2,0,0,0,7.16,7.57,1.65,1.65,0,0,0,6.08,9.65h0A0.42,0.42,0,0,0,6.89,9.4h0Z"/>
      <path class="cls-1" d="M18.57,2.24a1.65,1.65,0,0,0-2.34,0A2,2,0,0,0,16.2,5a2.33,2.33,0,0,0,1.65.71A2.31,2.31,0,0,0,19.51,5a2.82,2.82,0,0,0,0-4A3.42,3.42,0,0,0,14.72,1c-1.63,1.6-1.31,3.59-.69,6.24l1.76,5.18h0a0.42,0.42,0,0,0,.8-0.27h0L14.85,7c-0.59-2.48-.86-4.11.46-5.4a2.58,2.58,0,0,1,3.64,0A2,2,0,0,1,19.52,3a2,2,0,0,1-.6,1.4,1.48,1.48,0,0,1-1.06.43,1.5,1.5,0,0,1-1.06-.45,1.1,1.1,0,0,1-.32-0.79,1.11,1.11,0,0,1,.34-0.79,0.81,0.81,0,0,1,1.14,0h0a0.42,0.42,0,1,0,.6-0.59h0Z"/>
      <g>
        <path class="cls-2" d="M9.32,13.63c-5.2.07-9.38,3.46-9.32,7.59s4.31,7.41,9.52,7.34a11.77,11.77,0,0,0,2.1-.22C12.19,31,14,33,16.3,33.22c3.07,0.33,5.9-2.55,6.32-6.43,0.38-3.54-1.39-6.68-4-7.46C17.59,16,13.81,13.57,9.32,13.63Z"/>
        <path class="cls-3" d="M12.27,16.48C9.55,16.25,7,17.8,6.55,19.94S8,24,10.68,24.23a6.25,6.25,0,0,0,3.7-.84,3.85,3.85,0,0,0,.09,1.54,2.72,2.72,0,0,0,3.41,2.18,3.33,3.33,0,0,0,1.73-4C19.17,21.43,15,16.71,12.27,16.48Z"/>
        <ellipse class="cls-1" cx="12.04" cy="19.89" rx="1.07" ry="1.24" transform="translate(-10.82 15.67) rotate(-48.35)"/>
      </g>
      <g>
        <path class="cls-2" d="M20,7.52C22.62,3,27.64,1.06,31.2,3.14s4.32,7.4,1.7,11.9a11.87,11.87,0,0,1-1.23,1.72c2,1.79,2.87,4.34,1.94,6.48-1.23,2.84-5.13,3.88-8.71,2.33-3.27-1.41-5.13-4.5-4.5-7.18C18,15.89,17.74,11.4,20,7.52Z"/>
        <path class="cls-3" d="M21,11.49C22.17,9,24.78,7.55,26.86,8.22s2.84,3.22,1.7,5.7A6.24,6.24,0,0,1,26,16.73a3.82,3.82,0,0,1,1.3.83,2.72,2.72,0,0,1,.22,4,3.32,3.32,0,0,1-4.37-.48C21.95,19.93,19.89,14,21,11.49Z"/>
        <ellipse class="cls-1" cx="24.75" cy="11.89" rx="1.07" ry="1.24" transform="translate(-1.95 5.48) rotate(-12.17)"/>
      </g>
      <ellipse class="cls-1" cx="19.45" cy="18.71" rx="3.56" ry="8.53" transform="translate(-6.75 12.21) rotate(-29.95)"/>
    </g>
  </g>
</svg>
