<svg id="Layer_1" data-name="Layer 1" xmlns="http://www.w3.org/2000/svg" width="95.66" height="67.93" viewBox="0 0 95.66 67.93">
  <defs>
    <style>
      .cls-1 {
        fill: #231f20;
      }

      .cls-2 {
        fill: #007dc4;
      }

      .cls-3 {
        fill: #fd0;
      }

      .cls-4 {
        fill: #fff;
      }

      .cls-5 {
        fill: #ec1b2e;
      }

      .cls-6 {
        fill: #50b748;
      }

      .cls-7 {
        fill: #6dcef5;
      }

      .cls-8 {
        fill: #ba7832;
      }
    </style>
  </defs>
  <title>kitty_with_cart</title>
  <g>
    <path class="cls-1" d="M5.47,50A1.81,1.81,0,0,0,5,50a2.6,2.6,0,0,0-.29,1.42,3.19,3.19,0,0,0,.24,1.3,1.82,1.82,0,0,0-1,1.5,1.67,1.67,0,0,0,1.18,1.89l0.19,0.06a1,1,0,0,1-.87.57A0.79,0.79,0,0,0,4.12,58a1,1,0,0,0,1.47-.38,5.5,5.5,0,0,0,.33-1.4A2.07,2.07,0,0,0,7,56l0.13-.12V56a1,1,0,0,0,1,1.16h2A4.28,4.28,0,0,0,11.5,60a4.92,4.92,0,0,0,4.4.45A3.5,3.5,0,0,0,18,57.22c1.6,0,2.94,0,3.55.08,1.14,0.07,4.44,0,8,0a2.24,2.24,0,0,0,0,.4c0.22,1.45,1.1,2.71,3.39,3.17a3.83,3.83,0,0,0,3.85-1.77,4.26,4.26,0,0,0,.57-1.84c1.21,0,2.12,0,2.26-.05,0.72-.11.7-0.65,0.7-1.16,0-.06,0-0.15,0-0.25a1.4,1.4,0,0,0,.2.2,2.42,2.42,0,0,0,1.1.36,5.23,5.23,0,0,0,.32,1.3,1,1,0,0,0,1.48.38,0.8,0.8,0,0,0-.28-1.26,1.08,1.08,0,0,1-.82-0.45,1,1,0,0,0,.3-0.13,1.8,1.8,0,0,0,1-1.92,1.86,1.86,0,0,0-.93-1.46,1.82,1.82,0,0,0,.19-0.9A5.91,5.91,0,0,0,42.76,50a2.35,2.35,0,0,0-1-.24,2.26,2.26,0,0,1,2.27-.92,4.55,4.55,0,0,1,1.92.66,4.18,4.18,0,0,1,1.7,2.4l0.6,2.14c0.33,1.23.87,2.7,1.15,3.56,0.55,1.66,1.25,3.43,2.27,4.12A7.61,7.61,0,0,0,55.34,63c2.15,0.12,4.4,0,5.46-.62A6.42,6.42,0,0,0,62.51,61l3,0c2.3,0.13,4.07-.05,6.33,0a12.44,12.44,0,0,0,2-.4,10.89,10.89,0,0,0,.83,1.6c0.28,0.32.86,1,1.43,1.5a3.6,3.6,0,0,0-.78,1.16,1.37,1.37,0,0,0,.44,1.36,2.17,2.17,0,0,0,1.49.79,3,3,0,0,0,1.26-.62A5.29,5.29,0,0,0,80,67.75a1.22,1.22,0,0,0,1.77-.5,0.91,0.91,0,0,0-1.06-1.15,1.52,1.52,0,0,1-1.56-.31,2.52,2.52,0,0,0,.66-1,1.35,1.35,0,0,0-.33-1.28A2.3,2.3,0,0,0,78,62.55a4,4,0,0,0-1.36.67,7.86,7.86,0,0,1-2-2.69c1.63,0.12,3.24.66,4.91,0.63,1.38,0,3,.2,3.74-1.25a3.18,3.18,0,0,0-.12-2.73c-0.91-1.65-2.88-1.8-4.61-2-0.45-.18-0.23-0.63-0.28-1,0-3.68-3.38-6.15-3.72-9.68a1.81,1.81,0,0,1,.06-1.41c3.48-.57,7.12-1.19,10-3.3a12.22,12.22,0,0,0,2.55-2.55,0.73,0.73,0,0,1,.53,0,28.9,28.9,0,0,1,3.32,1.36c0.42,0.12.82,0.7,1.36,0.49,0.17-.06.11-0.29,0-0.4a37.76,37.76,0,0,0-4.54-2.13,0.28,0.28,0,0,1-.09-0.17c0.27-.94.74-1.87,1-2.81a0.71,0.71,0,0,1,.24-0.15c1,0.34,2,.45,3,0.85,0.07,0,.17-0.06.27-0.06a0.26,0.26,0,0,0,0-.36,5.87,5.87,0,0,0-1.81-.7,2.5,2.5,0,0,1-1.55-.69c0.11-1,.32-2.09.37-3.2a0.43,0.43,0,0,1,.18-0.29c0.76-.13,1.57.1,2.33,0a22,22,0,0,1,3.26.7,0.46,0.46,0,0,0,.37-0.11c0-.14.17-0.26,0-0.36a15.2,15.2,0,0,0-5.25-.85,0.8,0.8,0,0,1-.91-0.3,17.79,17.79,0,0,0-1.76-6.31c-0.37-.64-0.87-1.16-1.2-1.79,0.35-1.3.91-2.85-.12-4,0-.59,0-1.38-0.08-1.91a16.57,16.57,0,0,0-1.2-4.65,0.06,0.06,0,0,1,0-.06C84.79,8.83,84.71,8.37,84,8.4a17.71,17.71,0,0,0-5.87,2c-0.4.15-.88,0.55-1.34,0.69a11.36,11.36,0,0,0-2.16-2.32,3.83,3.83,0,0,0-2.76-.74c-1.59.22-2.22,2-2.77,3.32a3.3,3.3,0,0,1-.61,1.22c-0.88-.07-1.77,0-2.58-0.08a5.41,5.41,0,0,1-1,0l-4.44.33a7.92,7.92,0,0,1-1.23-1.17A20.11,20.11,0,0,0,55,9c-0.75-.26-1.61-0.73-2.29-0.13a9.13,9.13,0,0,0-3,7.09c0,0.86.25,1.66,0.25,2.51-0.53.76-1.15,1.43-1.67,2.22A17.65,17.65,0,0,0,45.76,32c-0.19.55-.8,0.26-1.2,0.5a6.48,6.48,0,0,0-2.5.78,6,6,0,0,0-.68.35c0.34-1.73.71-3.91,0.69-4a0.72,0.72,0,0,0-.4-0.54,0.58,0.58,0,0,1-.2-0.75c0.72-2,1.53-4.3,1.65-4.57a1,1,0,0,0-.36-1.46A8.17,8.17,0,0,0,41,21.49a1.08,1.08,0,0,0-1.49.39c-0.15.39-.68,1.45-1.16,2.65l-0.34.75s-0.16.46-.41,0.29,0.46-2,.64-2.6,0.68-2.06.79-2.48c0.25-.82.23-1.21-0.19-1.46a8.39,8.39,0,0,0-1.62-.75,3.7,3.7,0,0,0-1.22-.22,1.06,1.06,0,0,0-.75.86c-0.18.49-.66,1.65-0.83,2.23-0.13.41-.33,0.95-0.44,1.22a1.36,1.36,0,0,0-.64.07c-0.52.22-.29-0.28-0.19-0.52,0.27-.69.58-1.74,0.66-1.93a0.92,0.92,0,0,0-.3-1,3.62,3.62,0,0,0-1-.53,4,4,0,0,0-1.29-.25,1.11,1.11,0,0,0-.78.7c-0.11.21-.59,1.46-0.76,1.92s-0.34,1-.48,1.4a0.41,0.41,0,0,0-.4.18,8,8,0,0,0-.66,1.38c-0.06.15-.75,2.37-1.27,4-0.13.42-.84,0-1.37-0.06a5.4,5.4,0,0,0-1.66-.12,2.14,2.14,0,0,0-1.42,1,2,2,0,0,0,.46,2.13,3.23,3.23,0,0,1,.85,1.77,1,1,0,0,1-.94.89,1.4,1.4,0,0,1-.86-0.66A7,7,0,0,0,21,30.86a3.23,3.23,0,0,0-1.9-.44,5.17,5.17,0,0,0-2.62.83,10.47,10.47,0,0,0-2.95,2.54,27.68,27.68,0,0,0-1.8,3.31c-0.06.16-.27,0.42-0.7-0.06a9.47,9.47,0,0,0-1.31-1.12,0.8,0.8,0,0,1-.24-0.73,3.17,3.17,0,0,0-.22-2.06,4.84,4.84,0,0,0-2.21-1.79,9.82,9.82,0,0,1-1.74-.55c-0.27-.14-1-0.39-1-0.39a0.42,0.42,0,0,0-.47.4c-0.08.48-.24,1.46-0.3,2.3A0.46,0.46,0,0,1,3,33.5a9.16,9.16,0,0,1-1.33-.08l-1.06-.25a0.39,0.39,0,0,0-.48.3,11.43,11.43,0,0,0,.22,3.92,3.61,3.61,0,0,0,2.33,2.2,6.73,6.73,0,0,0,1.44.11,0.61,0.61,0,0,1,.67.42A11,11,0,0,0,6.12,42.4c0.47,0.62,1.46,1.85,2,2.42,0.15,0.15.32,0.32,0.49,0.49,0.4,0.42-.27.38-0.39,0.39a0.89,0.89,0,0,0-1,.86c0,0.32,0,1.61,0,2.81a0.5,0.5,0,0,1-.53.57ZM7.55,38.22a2.23,2.23,0,0,1-1.07-.61,0.8,0.8,0,0,0,0-.16,2.36,2.36,0,0,1,.77,0A1,1,0,0,1,7.55,38.22ZM60.83,49.34a1.81,1.81,0,0,1-.23.19,16.17,16.17,0,0,0-1.86-1.17,4.33,4.33,0,0,0-3.49.31c-2.46,1.41-2.7,4.45-2.65,7.08a5.45,5.45,0,0,0,3.08,4.7,3,3,0,0,0,1.07.31c1.53,0.14,3.12.21,4.71,0.25a3.78,3.78,0,0,1-.92.68c-1.4.7-6.31,0.89-8.14-.46-1.49-1.1-2.51-4.42-3.18-7l-0.91-3.1a4.43,4.43,0,0,0-1.49-2.07,4.24,4.24,0,0,0-2.44-1,3.87,3.87,0,0,0-3.7,1.7l-0.39,0c0-1.12,0-2.49,0-3.16a0.84,0.84,0,0,0-.83-1c-0.44-.08-0.35-0.37-0.31-0.59,0.19-1.09.45-2.66,0.54-3.13,0.13-.74,1.13-5.9,1.32-6.74,0.06-.26.14-0.6,0.22-1h0a10.23,10.23,0,0,1,4.36-1.38,0.76,0.76,0,0,1,.22.11c0.34,1.26.78,2.46,1.21,3.66a0.39,0.39,0,0,1,0,.33c-0.71.46-1.51,0.72-2.19,1.25-0.07.09-.24,0.25,0,0.39a15.77,15.77,0,0,0,2.57-1,0.45,0.45,0,0,1,.23.07A17.34,17.34,0,0,0,50,40.27a0.38,0.38,0,0,1,0,.26c-0.63.83-1.7,1.41-2,2.44,0.08,0.3.33,0,.36,0,0.66-.69,1.47-1.35,2.19-2a0.56,0.56,0,0,1,.37-0.08c3.61,2.16,7.85,2.05,12,2.53,0.06,0,0,.1.06,0.13C62.08,45.52,61.47,47.4,60.83,49.34Z"/>
    <path class="cls-2" d="M15.24,53.87a3.4,3.4,0,0,0-3.43.83,4.13,4.13,0,0,0-.87,2.65,3,3,0,0,0,3,2.72c1.7,0,3-.74,3.31-2.43C17.5,56.19,16.8,54.24,15.24,53.87Z"/>
    <path class="cls-2" d="M36.27,55.38A3.5,3.5,0,0,0,34,53.81c-1.8-.06-3,0.65-3.46,2.12-0.48,1.63-.14,3.1,1.4,3.86,1.31,0.64,3.37.52,4.18-.88A3.4,3.4,0,0,0,36.27,55.38Z"/>
    <path class="cls-3" d="M11.46,43.61c0,0.69,0,2,.49,2.12,0.24,0,2,.06,3.08.08,1.35,0,5.39,0,5.61,0a3.66,3.66,0,0,0,.59-1.38c0.06-.19.15-0.35-0.25-0.59a7.83,7.83,0,0,1-1.1-.68,3.94,3.94,0,0,1,.7-2.06,1.68,1.68,0,0,1,1-1,5.17,5.17,0,0,1,.53.19,0.38,0.38,0,0,0,.56-0.17c0.34-.77.8-2.09,0.89-2.44s2.5-7.31,2.81-8.14a0.45,0.45,0,0,0-.13-0.56,3.91,3.91,0,0,0-2.37-.42,0.89,0.89,0,0,0-.66.66,1.82,1.82,0,0,0,.52,1.32,3.56,3.56,0,0,1,.94,1.79,1.87,1.87,0,0,1-.49,1.46,2.33,2.33,0,0,1-1.79.41,1.83,1.83,0,0,1-1.23-.94,5.71,5.71,0,0,0-.64-1.59c-0.42-.4-2.18-0.44-3.61.3A10.07,10.07,0,0,0,14,34.77a26,26,0,0,0-2,4.38A18.67,18.67,0,0,0,11.46,43.61Z"/>
    <path class="cls-4" d="M32.86,25.94a2.88,2.88,0,0,1-1.19-.7A3.59,3.59,0,0,1,31.54,24l-1.79-.65c-0.44-.14-0.52,0-0.6.25-0.16.42-.66,1.82-0.91,2.45-0.12.31-1.14,3.7-1.45,4.21s-1.56,4.77-1.67,5c-0.23.61-1.1,3.37-1.61,5a0.77,0.77,0,0,0,.54.83c0.7,0.35,2.29,1,2.62,1.16s4.59,2.08,5.17,2.44a0.63,0.63,0,0,0,.93-0.26c0.35-.88.84-2.1,1-2.51,0.22-.65,3.22-8.62,3.43-9.21,0.28-.81,1.56-4.51,1.72-5.17a0.59,0.59,0,0,0-.22-0.78l-1.5-.62L36.87,26a3.16,3.16,0,0,1-1.47.72A14.08,14.08,0,0,1,32.86,25.94Z"/>
    <path class="cls-5" d="M72.64,8.92A4.27,4.27,0,0,1,75.53,11a0.62,0.62,0,0,0,.28.34,4.55,4.55,0,0,1,.65,2.36,5.2,5.2,0,0,1-1,.57A2.13,2.13,0,0,0,73,14.13a1.77,1.77,0,0,0-.31,1.79,2.22,2.22,0,0,0,1.24,1,1.88,1.88,0,0,1-.06,1.28c-1.33.56-3,1.09-4.44,0.27-0.85-.89-0.56-2.23-0.42-3.34,0.45-1.95.84-4.27,2.13-5.78a1.82,1.82,0,0,1,1.2-.48C72.41,9,72.54,8.88,72.64,8.92Z"/>
    <path class="cls-4" d="M84.16,9.79a15.73,15.73,0,0,1,1.06,5,0.33,0.33,0,0,1-.35.41,18.87,18.87,0,0,0-3.84.06,2.64,2.64,0,0,1-.83-0.79,4,4,0,0,0-2.52-1,1.66,1.66,0,0,1-.37-1.1,8.16,8.16,0,0,1,2.43-1.6,16.6,16.6,0,0,1,3.7-1.31A0.63,0.63,0,0,1,84.16,9.79Z"/>
    <path class="cls-4" d="M59.12,13.25a1.47,1.47,0,0,0,.59.81,7.53,7.53,0,0,0,2.31-.2,18.31,18.31,0,0,1,6.11-.06,0.37,0.37,0,0,1,.19.3c-0.11,1-.25,2-0.27,3a3,3,0,0,0,1.08,2.24c1.38,0.72,2.94.33,4.43,0a0.84,0.84,0,0,1,1,0,4,4,0,0,0,3.17,1.65c0.79,1.67,1.48,3.8,3.74,3.87,2-.24,3-2.07,4.19-3.52,0.53,0,.76.72,1.07,1.06a10.6,10.6,0,0,1,1.47,5.19,0.53,0.53,0,0,1-.55.67,11.63,11.63,0,0,0-3.42.9c-0.24.15,0,.36,0.18,0.4a8.46,8.46,0,0,0,1.53-.4,6.13,6.13,0,0,1,2.14-.17,0.92,0.92,0,0,1,.2.83,12.12,12.12,0,0,1-.4,2.35,0.37,0.37,0,0,1-.17.16,8.55,8.55,0,0,0-2.6.12,0.22,0.22,0,0,0-.08.36c0.78,0.3,1.71-.09,2.52.31a2.6,2.6,0,0,1-.19,1.3A3.92,3.92,0,0,1,86.46,36l-1.9-.09a1,1,0,0,0-.53,0c-0.07.13-.15,0.33,0,0.4a4.47,4.47,0,0,0,1.69.37c0.19,0.07.12,0.33,0,.46-1.53,2.07-4,2.95-6.34,3.76a39.27,39.27,0,0,1-7.28,1.29,1.17,1.17,0,0,1-.49,0,81.79,81.79,0,0,1-10.66,0,32.57,32.57,0,0,1-7.28-1.07A10.71,10.71,0,0,1,52,40.22a0.2,0.2,0,0,1,0-.33c0.31-.35.75-0.66,1.1-1a0.17,0.17,0,0,0-.18-0.24,9.51,9.51,0,0,0-1.82,1,4.69,4.69,0,0,1-1.71-1.42,4.48,4.48,0,0,1-.59-0.84,1.09,1.09,0,0,1,1-.68c0.47-.21,1.15,0,1.46-0.4a1.38,1.38,0,0,0-1.23-.19c-0.53.08-1,.32-1.56,0.39a6.47,6.47,0,0,1-.86-2,7.25,7.25,0,0,1-.31-1.82,11.12,11.12,0,0,1,3.29-.32,0.18,0.18,0,0,0,.08-0.22,7.8,7.8,0,0,0-3.47-.28,2.18,2.18,0,0,1-.33-1.56,16.68,16.68,0,0,1,1.66-8,15.18,15.18,0,0,1,3.78-4.46,0.47,0.47,0,0,0,.12-0.52c-0.37-.54-0.83.19-1.21-0.12a7.67,7.67,0,0,1,0-3.68c0.33-1.46,1-3.3,2.53-3.93A11.27,11.27,0,0,1,59.12,13.25Z"/>
    <path class="cls-5" d="M80.06,15.64a3.54,3.54,0,0,1-.32,3.5,2.9,2.9,0,0,1-2.19,1.09,2.82,2.82,0,0,1-2.09-1,3.06,3.06,0,0,1-.26-3.13,3,3,0,0,1,2.61-1.79A2.7,2.7,0,0,1,80.06,15.64Z"/>
    <path class="cls-5" d="M74.81,14.73A2.53,2.53,0,0,1,74.24,16a0.61,0.61,0,0,1-.69-0.12,0.87,0.87,0,0,1-.18-1.09A0.71,0.71,0,0,1,74,14.47,1.59,1.59,0,0,1,74.81,14.73Z"/>
    <path class="cls-5" d="M86.1,17.26c0.24,1.22-.53,2.44-1,3.53-1.18,1.43-2.07,3.72-4.17,3.13-1.3-.35-1.7-1.78-2.14-2.82A5.07,5.07,0,0,1,80,20a3.29,3.29,0,0,1,1.1.48A0.89,0.89,0,0,0,82,20.39,1.7,1.7,0,0,0,82.7,19a2.34,2.34,0,0,0-1.35-1.54,2.43,2.43,0,0,1-.11-1.18,2.1,2.1,0,0,1,1.27-.37C83.79,16,85.64,15.73,86.1,17.26Z"/>
    <path class="cls-5" d="M81.89,18.78a0.68,0.68,0,0,1-.14.84,0.79,0.79,0,0,1-.88-0.13,0.91,0.91,0,0,1,.21-1C81.46,18.2,81.67,18.57,81.89,18.78Z"/>
    <path class="cls-1" d="M80.08,30.19a2.59,2.59,0,0,1,0,2.69,1,1,0,0,1-.82.52,1.17,1.17,0,0,1-.8-0.36,3.11,3.11,0,0,1-.25-2.54,1.35,1.35,0,0,1,.92-0.72A1.65,1.65,0,0,1,80.08,30.19Z"/>
    <path class="cls-1" d="M56.57,30.44a3.2,3.2,0,0,1,.18,2.6,1,1,0,0,1-.81.55,1,1,0,0,1-.9-0.3,2.57,2.57,0,0,1-.35-2.41,1.33,1.33,0,0,1,1-.88A1.17,1.17,0,0,1,56.57,30.44Z"/>
    <path class="cls-1" d="M69.31,34.74a1.56,1.56,0,0,1,0,1.15,1.91,1.91,0,0,1-1.71.91,2.37,2.37,0,0,1-2.26-.89,1.38,1.38,0,0,1,.36-1.46C66.75,33.81,68.61,33.56,69.31,34.74Z"/>
    <path class="cls-3" d="M68.63,34.65a1,1,0,0,1,.29,1,1.83,1.83,0,0,1-2,.77,1.19,1.19,0,0,1-1.11-.67,0.85,0.85,0,0,1,.2-0.91,2.88,2.88,0,0,1,.31-0.28A2.94,2.94,0,0,1,68.63,34.65Z"/>
    <path class="cls-3" d="M69,43.62a6.13,6.13,0,0,1-4.3,5.16,5.47,5.47,0,0,1-2.43.09,0.94,0.94,0,0,1,.07-0.79,37.15,37.15,0,0,1,1.91-4.61,0.33,0.33,0,0,1,.24-0.12c1.47,0,2.95,0,4.43,0A0.25,0.25,0,0,1,69,43.62Z"/>
    <path class="cls-4" d="M60.14,50.82c0.38,1.06-.22,2.06-0.2,3.11-0.11,1.73-.36,3.76-0.51,5.59a0.23,0.23,0,0,1-.2.12c-1.28,0-2.9.23-3.9-.8-1.81-1.49-1.72-4.18-1.36-6.39A3.78,3.78,0,0,1,56,49.59,3.44,3.44,0,0,1,60.14,50.82Z"/>
    <path class="cls-4" d="M65.68,51a1.4,1.4,0,0,1,0,1.35,1.53,1.53,0,0,1-1.18.9,1.46,1.46,0,0,1-1.13-.61,1.54,1.54,0,0,1-.28-1.19,1.11,1.11,0,0,1,.87-1A1.32,1.32,0,0,1,65.68,51Z"/>
    <path class="cls-4" d="M81.89,57.19a2.13,2.13,0,0,1,.61,1.6,1.23,1.23,0,0,1-.5,1c-1.14.48-2.41,0.16-3.58,0.08a13.38,13.38,0,0,1-2.28-.33,0.92,0.92,0,0,1,.4-0.74,7.12,7.12,0,0,0,1.52-2.49,6.46,6.46,0,0,1,2.39.14A2.45,2.45,0,0,1,81.89,57.19Z"/>
    <path class="cls-1" d="M14,37.89A2,2,0,0,0,14,39.58a1.52,1.52,0,0,0,.94.84A1.7,1.7,0,0,0,17,39.3a2.59,2.59,0,0,0,.2-1,2.16,2.16,0,0,0-.14-0.79,1.26,1.26,0,0,0-.71-0.7A1.82,1.82,0,0,0,14,37.89Z"/>
    <path class="cls-6" d="M15,40a1.06,1.06,0,0,1-.66-0.59,1.54,1.54,0,0,1,.07-1.3,1.36,1.36,0,0,1,1.75-.85h0a0.79,0.79,0,0,1,.45.46,2,2,0,0,1-.06,1.43A1.24,1.24,0,0,1,15,40Z"/>
    <path class="cls-1" d="M12.45,42.53a2.19,2.19,0,0,0,.2,1.81,1.51,1.51,0,0,0,1,.71,1.8,1.8,0,0,0,1.94-1.53,2.66,2.66,0,0,0,.09-0.67,2.32,2.32,0,0,0-.27-1.11,1.27,1.27,0,0,0-.8-0.6A1.82,1.82,0,0,0,12.45,42.53Z"/>
    <path class="cls-7" d="M13.74,44.59A1,1,0,0,1,13,44.1a1.74,1.74,0,0,1-.16-1.43,1.36,1.36,0,0,1,1.63-1.08h0A0.78,0.78,0,0,1,15,42a2,2,0,0,1,.14,1.42A1.38,1.38,0,0,1,13.74,44.59Z"/>
    <path class="cls-1" d="M17.7,33.53A2.1,2.1,0,0,0,16.62,35a1.38,1.38,0,0,0,.31,1.18,2.11,2.11,0,0,0,2.8-.09,1.73,1.73,0,0,0,.53-2.3A1.8,1.8,0,0,0,17.7,33.53Z"/>
    <path class="cls-5" d="M17.28,35.88a1,1,0,0,1-.2-0.8,1.68,1.68,0,0,1,.85-1.15c0.84-.49,1.54-0.44,2,0.15a1.3,1.3,0,0,1-.45,1.67A1.67,1.67,0,0,1,17.28,35.88Z"/>
    <path class="cls-1" d="M36.22,30.36a1.83,1.83,0,0,0-.56-1.22c-0.43-.38-1.17-0.27-1.23-0.58a1.33,1.33,0,0,0-.77-1.23,1.58,1.58,0,0,0-1.55.27,0.58,0.58,0,0,1-.73-0.08,1.93,1.93,0,0,0-.92-0.28,1.7,1.7,0,0,0-1,.33,1.18,1.18,0,0,0-.39,1,2.32,2.32,0,0,0,.3,1.08A6.35,6.35,0,0,1,28.56,31a3.81,3.81,0,0,0-.4,1.8,2.19,2.19,0,0,0,.44,1.43,4.45,4.45,0,0,0,1,1,0.4,0.4,0,0,1,.11.56c-0.25.64-.49,1.49-0.69,2.2a0.78,0.78,0,0,0,.41,1,0.72,0.72,0,0,0,.93-0.42A14.33,14.33,0,0,0,31,36.94,1.7,1.7,0,0,1,31.56,36a3.52,3.52,0,0,0,1.51-.3,3.37,3.37,0,0,0,1.46-1.38c0.48-1.14.4-2.37,0.69-2.48A1.53,1.53,0,0,0,36.22,30.36Z"/>
    <path class="cls-6" d="M30.93,36c0,0.16-.66,1.62-0.83,2s-0.25.52-.5,0.43a0.59,0.59,0,0,1-.13-0.59,14.64,14.64,0,0,1,.74-2.23A0.82,0.82,0,0,1,30.93,36Z"/>
    <path class="cls-5" d="M34.74,31.63c-0.06.1-.12,0.78-0.19,1.18a4.19,4.19,0,0,1-.77,1.87,2.37,2.37,0,0,1-2.81.69,4.05,4.05,0,0,1-2-1.54A3.16,3.16,0,0,1,28.65,32c0.27-1.43,1.24-1.85,1.16-2.22s-0.51-1.15-.23-1.61a1,1,0,0,1,1-.44,1.63,1.63,0,0,1,.93.49c0.15,0.13.36,0.34,0.53,0.08a1,1,0,0,1,1.46-.53A1.2,1.2,0,0,1,34,29.18c0,0.09,0,.28.28,0.19a1.42,1.42,0,0,1,1.15.16,0.91,0.91,0,0,1,.41.7C35.93,31.13,34.89,31.31,34.74,31.63Z"/>
    <path class="cls-1" d="M27.34,34.49a1.55,1.55,0,0,0-.59,1,3.2,3.2,0,0,0,0,1.26,1.71,1.71,0,0,0,1.67,1.36,1,1,0,0,0,.43-0.53A3.26,3.26,0,0,0,29,36.06C28.88,35.23,27.85,34.27,27.34,34.49Z"/>
    <path class="cls-6" d="M27.13,36.64a1.85,1.85,0,0,1,.35-1.71,1.27,1.27,0,0,1,1.09,1,2.3,2.3,0,0,1-.3,1.8A1.19,1.19,0,0,1,27.13,36.64Z"/>
    <path class="cls-1" d="M32.09,36.94a2.61,2.61,0,0,0-1.24,1.23,0.81,0.81,0,0,0,0,.62,1.94,1.94,0,0,0,2.16.35,2,2,0,0,0,1-1.69A1.47,1.47,0,0,0,33.36,37,1.9,1.9,0,0,0,32.09,36.94Z"/>
    <path class="cls-6" d="M31.24,38.57a1.76,1.76,0,0,1,.87-1.18,1.36,1.36,0,0,1,1.46.21A1.38,1.38,0,0,1,31.24,38.57Z"/>
    <circle class="cls-1" cx="29.89" cy="24.36" r="0.44"/>
    <circle class="cls-1" cx="37.93" cy="27.28" r="0.44"/>
    <circle class="cls-1" cx="32.09" cy="43.64" r="0.45"/>
    <circle class="cls-1" cx="24.49" cy="40.22" r="0.44"/>
    <path class="cls-8" d="M76.82,64a2,2,0,0,1,1.07-.6,0.84,0.84,0,0,1,.79.38,1,1,0,0,1,.37.76,2.3,2.3,0,0,1-.66.91,3.67,3.67,0,0,1-1.21.76,1.07,1.07,0,0,1-.8-0.35A1,1,0,0,1,76,65h0A3.1,3.1,0,0,1,76.82,64Z"/>
    <path class="cls-6" d="M8.07,37.42A3.1,3.1,0,0,0,8.72,39c0.32,0.37,1.1,1.11,1.77,1.81,0.08,0.08.26,0,.28-0.15,0.15-.85.42-1.62,0.49-2a1,1,0,0,0-.38-0.79,5.62,5.62,0,0,0-1.54-1.39,0.82,0.82,0,0,0-.72.27A1.43,1.43,0,0,0,8.07,37.42Z"/>
    <path class="cls-8" d="M34.4,45.41c0.37-1,1-2.64,1.27-3.39,0.39-1.07,2.22-6,2.31-6.36s1.07-3,1.57-4.21c0.41-1,1.65-4.62,1.82-5.12a16,16,0,0,0,1-3.22,3.55,3.55,0,0,0-1.58-.8c-0.35-.09-0.51-0.15-0.72.23C40,22.7,39.53,24,39.2,24.62a9.21,9.21,0,0,0-.4.93c-0.15.47,0.14,0.51,0.26,0.56l0.5,0.2c0.58,0.2.44,0.67,0.25,1.28-0.37,1.16-3,8.14-3.47,9.3-0.28.7-1.21,3.5-1.65,4.71S33.75,44.13,33.43,45a0.43,0.43,0,0,0,.29.65A0.46,0.46,0,0,0,34.4,45.41Z"/>
    <path class="cls-8" d="M22,45.76l2.23,0c0.21,0,.26-0.16.09-0.24-0.8-.36-1.48-0.75-1.7-0.8a0.58,0.58,0,0,0-.67.14c-0.05.14-.12,0.31-0.17,0.49A0.27,0.27,0,0,0,22,45.76Z"/>
    <path class="cls-8" d="M20.69,42.78c0,0.16,3.94,2,4.37,2.26a5.6,5.6,0,0,0,1.86.69c0.57,0,4.37,0,4.95,0s-1.69-.93-2.14-1.12c-0.82-.35-4.76-2.2-5.1-2.41A22.5,22.5,0,0,0,21.7,41C21.32,41,20.71,42.35,20.69,42.78Z"/>
    <path class="cls-8" d="M37.65,38.51c-0.31.73-1.65,4.67-2.34,6.71-0.14.48,0.15,0.55,0.31,0.54l2.07,0a0.6,0.6,0,0,0,.7-0.56,17.3,17.3,0,0,1,.41-1.94c0.18-1,.84-4.21,1-5.08s0.85-4.16.95-4.67c0.18-.87.56-3.34,0.58-3.51s-0.37-.41-0.46-0.2-0.48,1.4-.57,1.65C40.17,31.81,38.08,37.53,37.65,38.51Z"/>
    <path class="cls-8" d="M30.36,22.63a7.16,7.16,0,0,1,.94.37A0.53,0.53,0,0,0,32,22.87a5.8,5.8,0,0,0,.35-1c0.22-.6.59-1.43,0.69-1.82a0.8,0.8,0,0,0-.72-0.8c-0.61-.14-0.87-0.39-1-0.21a10.49,10.49,0,0,0-.87,2c-0.07.25-.22,0.68-0.33,1.07A0.56,0.56,0,0,0,30.36,22.63Z"/>
    <path class="cls-8" d="M37.39,23.25a8.94,8.94,0,0,0,.26-0.91c0.09-.35.71-2,0.79-2.31s-0.2-.49-0.48-0.63-0.85-.3-1.27-0.44a0.44,0.44,0,0,0-.63.22c-0.09.18-.53,1.51-0.81,2.26-0.12.34-.25,0.66-0.35,0.92a0.31,0.31,0,0,0,.19.45c0.57,0.23,1.28.53,1.7,0.72A0.39,0.39,0,0,0,37.39,23.25Z"/>
    <path class="cls-5" d="M40.54,52.47a2.26,2.26,0,0,0,1.28-.07,1,1,0,0,0,.28-0.83A1.82,1.82,0,0,0,42,50.72c-0.12-.2-1.66-0.15-1.69.14A3.61,3.61,0,0,0,40.54,52.47Z"/>
    <path class="cls-5" d="M5.76,52.34a3.74,3.74,0,0,0,1.28,0,2.38,2.38,0,0,0,.18-1A1.12,1.12,0,0,0,7,50.65a5.55,5.55,0,0,0-1.24,0c-0.24,0-.24.4-0.24,0.66A1.13,1.13,0,0,0,5.76,52.34Z"/>
    <path class="cls-7" d="M2.39,36.88a0.22,0.22,0,0,1,.06-0.17,0.22,0.22,0,0,1,.17-0.07,1.14,1.14,0,0,0,1-.39,0.93,0.93,0,0,0-.12-0.91,0.26,0.26,0,0,1,0-.19A0.24,0.24,0,0,1,3.63,35,0.48,0.48,0,0,0,4,34.56a2.12,2.12,0,0,0-1.06-.32,7.9,7.9,0,0,1-1.9-.2C0.72,34,.75,34.79.75,35.13a5.17,5.17,0,0,0,.19,2c0.33,0.68.63,0.88,1.18,0.51A0.76,0.76,0,0,0,2.39,36.88Z"/>
    <path class="cls-5" d="M5.1,34.24a1.12,1.12,0,0,0,.38-0.06,0.7,0.7,0,0,0,.45-0.37,0.23,0.23,0,0,1,.43,0,0.74,0.74,0,0,0,.63.27,0.76,0.76,0,0,0,.71-0.34,0.24,0.24,0,0,1,.15-0.12,0.24,0.24,0,0,1,.19,0c0.21,0.15.59,0.16,0.61-.07C8.7,33,8,32.38,6.91,32l-1.32-.31s-0.84-.46-0.94-0.19-0.22,2-.25,2.2A1.09,1.09,0,0,0,5.1,34.24Z"/>
    <path class="cls-6" d="M10.8,45.32a20.38,20.38,0,0,1-.18-2.56,1.42,1.42,0,0,0-.38-1c-0.66-.59-1.34-1.41-1.73-1.82a11.08,11.08,0,0,0-2.12-1.51,1.05,1.05,0,0,0-.47.44,7.43,7.43,0,0,1-.6.61C5.1,39.67,6.59,41.68,7,42.4a30.91,30.91,0,0,0,3.19,3.31C10.42,45.72,10.84,45.69,10.8,45.32Z"/>
    <path class="cls-4" d="M8,34.12a1.25,1.25,0,0,1-1,.4,1.33,1.33,0,0,1-.81-0.27,0.88,0.88,0,0,1-.43.35c-0.2,0,.31.57,0.42,0.8a2.39,2.39,0,0,0,.66,1.24,2.14,2.14,0,0,0,1.49-.36,2.12,2.12,0,0,0,.61-1.52,4.68,4.68,0,0,0-.07-0.6A1.27,1.27,0,0,1,8,34.12Z"/>
    <path class="cls-4" d="M5.86,37.06a4,4,0,0,0-.49-1.6c-0.21-.36-1-0.93-1-0.71A0.94,0.94,0,0,1,4,35.3a1.51,1.51,0,0,1,.17.64,1,1,0,0,1-.14.52,1.39,1.39,0,0,1-1.21.61,1.32,1.32,0,0,1-.4.87,1.6,1.6,0,0,1-.33.21C1.68,38.38,2.69,39,3.17,39a2.66,2.66,0,0,0,2.17-.72A1.94,1.94,0,0,0,5.86,37.06Z"/>
    <path class="cls-7" d="M6.51,53.5a1.76,1.76,0,0,0-1.24-.12,1.09,1.09,0,0,0-.73,1,1.17,1.17,0,0,0,1.06,1.2,1.23,1.23,0,0,0,1.32-.91A1.34,1.34,0,0,0,6.51,53.5Z"/>
    <path class="cls-7" d="M41.93,55.61A1.16,1.16,0,0,0,43,54.41a1.08,1.08,0,0,0-.73-1A1.76,1.76,0,0,0,41,53.5a1.36,1.36,0,0,0-.42,1.2A1.23,1.23,0,0,0,41.93,55.61Z"/>
    <path class="cls-7" d="M34.82,25.13c-0.36-.14-1.93-0.72-2.56-1a1.19,1.19,0,0,0-.06.85,13.71,13.71,0,0,0,2.69,1.07A1.06,1.06,0,0,0,34.82,25.13Z"/>
    <path class="cls-7" d="M35.7,25.06a0.78,0.78,0,0,0,.06.88,1.7,1.7,0,0,0,1.15-.79c0-.16.06-0.7-0.17-0.69A3.76,3.76,0,0,0,35.7,25.06Z"/>
    <path class="cls-7" d="M33.8,24a7.54,7.54,0,0,0,1.46.5,1.75,1.75,0,0,0,.95-0.59,8.24,8.24,0,0,0-2.27-1,3.56,3.56,0,0,0-1.07.47C32.61,23.62,33.49,23.9,33.8,24Z"/>
    <path class="cls-1" d="M12.67,56.93a1.33,1.33,0,0,0,1.12,1.36,1.47,1.47,0,0,0,1.65-.66,1.8,1.8,0,0,0-.25-1.7,1.57,1.57,0,0,0-1.57-.33A1.42,1.42,0,0,0,12.67,56.93Z"/>
    <path class="cls-4" d="M13.21,57.05A1.09,1.09,0,0,1,14,56a0.91,0.91,0,0,1,1.11.87,0.88,0.88,0,0,1-.79.91A0.94,0.94,0,0,1,13.21,57.05Z"/>
    <path class="cls-1" d="M33.88,55.58a1.33,1.33,0,0,0-1.62.69A1.47,1.47,0,0,0,32.42,58a1.78,1.78,0,0,0,1.7.24,1.56,1.56,0,0,0,.76-1.41A1.42,1.42,0,0,0,33.88,55.58Z"/>
    <path class="cls-4" d="M33.61,56.06a1.1,1.1,0,0,1,.78,1,0.91,0.91,0,0,1-1.15.83,0.88,0.88,0,0,1-.65-1A0.94,0.94,0,0,1,33.61,56.06Z"/>
    <path class="cls-2" d="M67.12,51.37a1.1,1.1,0,0,0,.14-0.83,21.3,21.3,0,0,1,.16-2.25,4.38,4.38,0,0,1-.36.28,12.89,12.89,0,0,1-1.68.91L65,49.64s0.47,0.27.71,0.43a1.44,1.44,0,0,1,.44.49,1.55,1.55,0,0,1,.34,1,2.62,2.62,0,0,1-.1.62l0.06-.14A1.8,1.8,0,0,1,67.12,51.37Z"/>
    <path class="cls-2" d="M64.73,59.85a48.89,48.89,0,0,0,6.14,0,9.72,9.72,0,0,0,2.49-.41l-0.18-.52a11,11,0,0,0-.73-1.81,2.88,2.88,0,0,0-.37-0.51,2.74,2.74,0,0,1-1,.37,2.88,2.88,0,0,1-3.18-1.58l0-.12a3.33,3.33,0,0,0-2,.91,25.22,25.22,0,0,0-2.16,3.21l-0.28.43C63.86,59.82,64.29,59.82,64.73,59.85Z"/>
    <path class="cls-2" d="M72.07,45.11c1.55,1,1.61,3.17,1.73,4.92-0.07,1.9.28,4.54-1.09,6a4.2,4.2,0,0,1,.31.47,20.66,20.66,0,0,1,1.12,2.55l0,0.06A4.32,4.32,0,0,0,76,57.62c3.7-5-2.78-9.18-2.73-14.1a0.25,0.25,0,0,0-.29-0.31c-1,.2-1.94.15-2.93,0.26-0.08.39-.28,1-0.34,1.34,0,0,0,.05,0,0.08A3.11,3.11,0,0,1,72.07,45.11Z"/>
    <path class="cls-2" d="M65.1,55.82a4.68,4.68,0,0,1,1.23-1,4.59,4.59,0,0,1,1-.34,2.14,2.14,0,0,1-.95-0.9,2.38,2.38,0,0,1-.11-0.87,1.22,1.22,0,0,1-.54.65,2,2,0,0,1-3.16-.83,2.57,2.57,0,0,1,.47-2.48A0.21,0.21,0,0,0,63,50a2.61,2.61,0,0,1-1.2-.28l0,0.17a41.88,41.88,0,0,0-1.12,9.63,0.35,0.35,0,0,0,.16.2,9.25,9.25,0,0,0,1.62.14c0.32-.46.62-1,0.93-1.44A13.9,13.9,0,0,1,65.1,55.82Z"/>
    <path class="cls-5" d="M11.59,53.86a4.75,4.75,0,0,1,3.61-.7A3.6,3.6,0,0,1,18,56.35h0l1.55,0c1.19,0,7.28.05,8.72,0.09,0.3,0,.76,0,1.32,0a3.86,3.86,0,0,1,5-3.29,4.36,4.36,0,0,1,2.59,2.23,2.78,2.78,0,0,1,.21.78l1.34,0c0.53,0,.57,0,0.68-0.41s0.09-3.82.09-5.09c0-.79-0.08-3.29-0.08-3.56a0.57,0.57,0,0,0-.58-0.48c-0.49,0-5.24,0-8.44,0-2.7.07-7.48-.08-11.29,0-4.09.13-9.53-.12-10.63,0a0.45,0.45,0,0,0-.28.55c0,0.32,0,2.65,0,3.92s0,4,.07,4.86c0,0.23.25,0.19,0.46,0.21l1.6,0A4.25,4.25,0,0,1,11.59,53.86Z"/>
    <path class="cls-3" d="M68.26,50.17a0.4,0.4,0,0,0,.25.06c1.42,0,2.83.09,4.25,0.06l0.09-.05c0-1.48.16-3.51-1.36-4.44a1.82,1.82,0,0,0-1.94.09C68.17,46.73,68.27,48.71,68.26,50.17Z"/>
    <path class="cls-4" d="M71.76,55.77c1.29-1.13,1.29-2.93,1.24-4.43a0.52,0.52,0,0,0-.08-0.22A40.05,40.05,0,0,0,68.35,51a1.44,1.44,0,0,0-.23.74c-0.56.26-1.26,1-.81,1.67a3.1,3.1,0,0,0,1,.65,2.53,2.53,0,0,0,1.85,2.11A2.12,2.12,0,0,0,71.76,55.77Z"/>
    <path class="cls-1" d="M27.55,39.41a3.6,3.6,0,0,0-.19,1,14.35,14.35,0,0,1,1.29-.73,0.14,0.14,0,0,1,.14.13,0.12,0.12,0,0,1,0,.08,6.61,6.61,0,0,0-.92.52c0.16,0.33.36,0.62,0.54,0.94a0.1,0.1,0,0,1-.13.11,5.79,5.79,0,0,1-.6-0.92,1.54,1.54,0,0,0-.36.2c0,0.2,0,.4,0,0.6a0.14,0.14,0,0,1-.16,0,2.39,2.39,0,0,1,0-1,3.22,3.22,0,0,1,.3-1A0.14,0.14,0,0,1,27.55,39.41Z"/>
    <path class="cls-1" d="M29.66,40a0.26,0.26,0,0,1-.22.32,0.37,0.37,0,0,1-.36-0.1A0.29,0.29,0,0,1,29,39.91a0.45,0.45,0,0,1,.3-0.17A0.35,0.35,0,0,1,29.66,40Z"/>
    <path class="cls-1" d="M31,40.78c0.09,0,.27,0,0.29.15s-0.23,0-.33.07a3,3,0,0,0-.16.75,0.12,0.12,0,0,1-.16,0,1.42,1.42,0,0,1,0-.74,0.35,0.35,0,0,1-.28-0.16c0-.19.35,0.07,0.36-0.19a0.64,0.64,0,0,1,.13-0.4C31.23,40.29,30.93,40.6,31,40.78Z"/>
    <path class="cls-1" d="M30.12,40.34a3.09,3.09,0,0,0-.08.34,0.43,0.43,0,0,1,.31.15c0,0.17-.23,0-0.33.07a6.37,6.37,0,0,0-.16.77,0.1,0.1,0,0,1-.14,0,1.3,1.3,0,0,1,0-.76,0.44,0.44,0,0,1-.27-0.09s0-.12,0-0.12a2.59,2.59,0,0,0,.29,0c0.05-.15.07-0.32,0.13-0.47A0.14,0.14,0,0,1,30.12,40.34Z"/>
    <path class="cls-1" d="M33,41a0.09,0.09,0,0,1,0,.08,15.12,15.12,0,0,0-1.29,1.33,0.12,0.12,0,0,1-.14,0c-0.11-.2.15-0.32,0.23-0.47-0.19-.41-0.28-0.83-0.47-1.23a0.08,0.08,0,0,1,.1-0.09l0.1,0c0.21,0.35.25,0.74,0.44,1.07a9.13,9.13,0,0,1,.93-0.86A0.12,0.12,0,0,1,33,41Z"/>
    <path class="cls-1" d="M29.3,40.58c-0.06.32-.16,0.68-0.21,1a0.14,0.14,0,0,1-.16,0,2.46,2.46,0,0,1,.16-1.08A0.14,0.14,0,0,1,29.3,40.58Z"/>
    <path class="cls-5" d="M81.35,1.23a2,2,0,0,0-1.84.27,2,2,0,1,0-3.7,1.28C76,3.25,77.76,6.34,77.76,6.34s3.32-1.27,3.77-1.49A2,2,0,0,0,81.35,1.23Z"/>
  </g>
</svg>
