<?xml version="1.0" encoding="iso-8859-1"?>
<svg version="1.1" id="Layer_1" xmlns="http://www.w3.org/2000/svg" xmlns:xlink="http://www.w3.org/1999/xlink" x="0px" y="0px"
	 viewBox="0 0 223 92" style="enable-background:new 0 0 223 92;" xml:space="preserve">
<g>
	<g>
		<path style="fill:#0A67B2;" d="M11.555,76.265c-0.36-0.768-1.08-1.248-1.944-1.248c-0.936,0-1.896,0.769-1.896,1.729
			c0,2.664,5.401,1.368,5.401,5.377c0,2.039-1.584,3.456-3.577,3.456c-1.848,0-3.36-1.128-3.816-2.929l1.056-0.336
			c0.408,1.32,1.296,2.256,2.76,2.256c1.392,0,2.496-1.104,2.496-2.496c0-1.367-1.056-1.8-2.16-2.184
			c-1.512-0.553-3.24-1.2-3.24-3.072c0-1.68,1.417-2.809,3.024-2.809c1.128,0,2.352,0.744,2.832,1.776L11.555,76.265z"/>
		<path style="fill:#0A67B2;" d="M17.099,75.642h0.048c0.504-1.033,1.608-1.633,2.784-1.633c1.417,0,2.544,0.721,3.121,2.016
			c0.6-1.319,1.824-2.016,3.24-2.016c2.856,0,3.432,1.944,3.432,4.369v6.96h-1.08v-7.104c0-1.704-0.264-3.217-2.376-3.217
			c-2.304,0-2.856,2.017-2.856,3.937v6.385h-1.08v-6.841c0-1.729-0.312-3.48-2.472-3.48c-2.328,0-2.76,2.425-2.76,4.225v6.097h-1.08
			V74.249h1.08V75.642z"/>
		<path style="fill:#0A67B2;" d="M43.475,85.338h-1.08v-1.992h-0.048c-0.816,1.416-2.592,2.232-4.224,2.232
			c-3.36,0-5.473-2.616-5.473-5.856s2.088-5.713,5.424-5.713c1.704,0,3.336,0.768,4.272,2.16h0.048v-1.92h1.08V85.338z
			 M33.73,79.722c0,2.544,1.68,4.848,4.368,4.848c2.833,0,4.369-2.304,4.369-4.968c0-2.568-1.752-4.585-4.44-4.585
			C35.482,75.017,33.73,77.321,33.73,79.722z"/>
		<path style="fill:#0A67B2;" d="M48.308,85.338h-1.08V65.536h1.08V85.338z"/>
		<path style="fill:#0A67B2;" d="M53.105,85.338h-1.08V65.536h1.08V85.338z"/>
		<path style="fill:#0A67B2;" d="M74.394,84.81c0,1.705-0.048,3.24-1.104,4.705c-1.032,1.416-2.664,2.136-4.416,2.136
			c-2.904,0-5.305-1.704-5.473-4.753h1.08c0.12,2.305,2.064,3.745,4.296,3.745c1.392,0,2.736-0.48,3.552-1.656
			c0.864-1.272,0.984-2.712,0.984-4.2v-1.368h-0.048c-0.984,1.319-2.64,2.16-4.32,2.16c-3.216,0-5.376-2.712-5.376-5.809
			c0-3.192,2.28-5.761,5.521-5.761c1.8,0,3.144,0.768,4.176,2.16h0.048v-1.92h1.08V84.81z M64.649,79.722
			c0,2.544,1.68,4.848,4.369,4.848c2.832,0,4.368-2.304,4.368-4.968c0-2.568-1.752-4.585-4.44-4.585
			C66.401,75.017,64.649,77.321,64.649,79.722z"/>
		<path style="fill:#0A67B2;" d="M79.903,70.553c0,0.552-0.432,0.983-0.984,0.983c-0.552,0-0.984-0.432-0.984-0.983
			c0-0.528,0.432-0.984,0.984-0.984C79.471,69.569,79.903,70.025,79.903,70.553z M79.447,85.338h-1.08V74.249h1.08V85.338z"/>
		<path style="fill:#0A67B2;" d="M84.566,85.338h-1.08V75.257h-1.224v-1.008h1.224V69.28c0-0.816,0.024-1.992,0.432-2.712
			c0.504-0.888,1.464-1.345,2.472-1.345c0.336,0,0.648,0.049,0.96,0.168v0.984c-0.288-0.048-0.576-0.144-0.888-0.144
			c-1.872,0-1.896,1.872-1.896,3.265v4.752h2.784v1.008h-2.784V85.338z"/>
		<path style="fill:#0A67B2;" d="M91.319,85.338h-1.08V75.257h-1.224v-1.008h1.224v-3.961h1.08v3.961h1.944v1.008h-1.944V85.338z"/>
		<path style="fill:#0A67B2;" d="M97.68,83.898l-1.992,5.425l-0.72-0.265l1.632-5.496L97.68,83.898z"/>
		<path style="fill:#0A67B2;" d="M110.855,65.536h1.08v10.633h0.048c0.936-1.393,2.568-2.16,4.272-2.16
			c3.312,0,5.424,2.473,5.424,5.713s-2.112,5.856-5.473,5.856c-1.632,0-3.408-0.816-4.224-2.232h-0.048v1.992h-1.08V65.536z
			 M120.599,79.722c0-2.424-1.752-4.705-4.32-4.705c-2.808,0-4.416,2.088-4.416,4.729c0,2.592,1.632,4.824,4.368,4.824
			C118.943,84.569,120.599,82.266,120.599,79.722z"/>
		<path style="fill:#0A67B2;" d="M126.325,70.553c0,0.552-0.432,0.983-0.983,0.983c-0.553,0-0.984-0.432-0.984-0.983
			c0-0.528,0.432-0.984,0.984-0.984C125.893,69.569,126.325,70.025,126.325,70.553z M125.869,85.338h-1.08V74.249h1.08V85.338z"/>
		<path style="fill:#0A67B2;" d="M139.806,84.81c0,1.705-0.048,3.24-1.104,4.705c-1.032,1.416-2.664,2.136-4.417,2.136
			c-2.904,0-5.304-1.704-5.472-4.753h1.08c0.119,2.305,2.063,3.745,4.296,3.745c1.393,0,2.736-0.48,3.553-1.656
			c0.863-1.272,0.983-2.712,0.983-4.2v-1.368h-0.048c-0.984,1.319-2.64,2.16-4.32,2.16c-3.216,0-5.376-2.712-5.376-5.809
			c0-3.192,2.279-5.761,5.521-5.761c1.8,0,3.144,0.768,4.176,2.16h0.048v-1.92h1.08V84.81z M130.062,79.722
			c0,2.544,1.68,4.848,4.368,4.848c2.832,0,4.368-2.304,4.368-4.968c0-2.568-1.752-4.585-4.44-4.585
			C131.814,75.017,130.062,77.321,130.062,79.722z"/>
		<path style="fill:#0A67B2;" d="M155.838,76.265c-0.36-0.768-1.08-1.248-1.944-1.248c-0.937,0-1.896,0.769-1.896,1.729
			c0,2.664,5.4,1.368,5.4,5.377c0,2.039-1.584,3.456-3.576,3.456c-1.848,0-3.36-1.128-3.816-2.929l1.057-0.336
			c0.407,1.32,1.296,2.256,2.76,2.256c1.393,0,2.496-1.104,2.496-2.496c0-1.367-1.056-1.8-2.16-2.184
			c-1.512-0.553-3.24-1.2-3.24-3.072c0-1.68,1.416-2.809,3.024-2.809c1.128,0,2.353,0.744,2.832,1.776L155.838,76.265z"/>
		<path style="fill:#0A67B2;" d="M161.381,75.642h0.048c0.504-1.033,1.607-1.633,2.784-1.633c1.416,0,2.544,0.721,3.12,2.016
			c0.6-1.319,1.824-2.016,3.24-2.016c2.856,0,3.433,1.944,3.433,4.369v6.96h-1.08v-7.104c0-1.704-0.265-3.217-2.377-3.217
			c-2.304,0-2.855,2.017-2.855,3.937v6.385h-1.08v-6.841c0-1.729-0.312-3.48-2.473-3.48c-2.328,0-2.76,2.425-2.76,4.225v6.097h-1.08
			V74.249h1.08V75.642z"/>
		<path style="fill:#0A67B2;" d="M179.494,70.553c0,0.552-0.432,0.983-0.983,0.983c-0.553,0-0.984-0.432-0.984-0.983
			c0-0.528,0.432-0.984,0.984-0.984C179.062,69.569,179.494,70.025,179.494,70.553z M179.038,85.338h-1.08V74.249h1.08V85.338z"/>
		<path style="fill:#0A67B2;" d="M184.079,85.338h-1.08V65.536h1.08V85.338z"/>
		<path style="fill:#0A67B2;" d="M188.064,79.89c-0.072,2.809,1.872,4.68,4.439,4.68c1.729,0,3.121-1.031,3.913-2.52l0.912,0.527
			c-1.009,1.921-2.784,3.001-4.969,3.001c-3.288,0-5.376-2.665-5.376-5.809c0-3.097,2.136-5.761,5.376-5.761
			c3.36,0,5.353,2.688,5.328,5.881H188.064z M196.608,78.882c-0.264-2.041-1.944-3.865-4.224-3.865c-2.257,0-4.129,1.776-4.32,3.865
			H196.608z"/>
		<path style="fill:#0A67B2;" d="M204.365,73.476c0.423,0.178,0.79,0.423,1.101,0.736c0.311,0.314,0.555,0.684,0.732,1.105
			c0.177,0.424,0.266,0.877,0.266,1.362c0,0.491-0.089,0.946-0.266,1.366c-0.178,0.42-0.422,0.785-0.732,1.096
			c-0.311,0.312-0.678,0.556-1.101,0.732c-0.423,0.178-0.88,0.266-1.371,0.266s-0.948-0.088-1.371-0.266
			c-0.423-0.177-0.79-0.421-1.101-0.732c-0.312-0.311-0.556-0.676-0.732-1.096c-0.178-0.42-0.267-0.875-0.267-1.366
			c0-0.485,0.089-0.938,0.267-1.362c0.177-0.422,0.421-0.791,0.732-1.105c0.311-0.313,0.678-0.559,1.101-0.736
			s0.88-0.266,1.371-0.266S203.942,73.298,204.365,73.476z M201.823,73.937c-0.357,0.156-0.667,0.367-0.928,0.635
			c-0.262,0.268-0.466,0.582-0.611,0.942c-0.146,0.36-0.22,0.749-0.22,1.166s0.073,0.806,0.22,1.166
			c0.146,0.36,0.35,0.675,0.611,0.942c0.261,0.268,0.57,0.479,0.928,0.634s0.748,0.233,1.171,0.233c0.416,0,0.804-0.078,1.161-0.233
			s0.667-0.366,0.928-0.634c0.262-0.268,0.467-0.582,0.616-0.942s0.224-0.749,0.224-1.166s-0.074-0.806-0.224-1.166
			s-0.354-0.675-0.616-0.942c-0.261-0.268-0.57-0.479-0.928-0.635c-0.357-0.154-0.745-0.232-1.161-0.232
			C202.571,73.704,202.18,73.782,201.823,73.937z M201.734,78.685v-4.01h1.539c0.454,0,0.785,0.094,0.994,0.283
			c0.208,0.19,0.312,0.466,0.312,0.826c0,0.174-0.027,0.326-0.08,0.457s-0.126,0.241-0.219,0.331
			c-0.094,0.091-0.2,0.162-0.322,0.215c-0.121,0.053-0.25,0.092-0.387,0.116l1.194,1.781h-0.579l-1.128-1.781h-0.831v1.781H201.734z
			 M203.325,76.47c0.146-0.01,0.275-0.035,0.387-0.079c0.112-0.044,0.202-0.113,0.271-0.21c0.068-0.096,0.103-0.229,0.103-0.396
			c0-0.143-0.026-0.258-0.079-0.346c-0.053-0.086-0.124-0.156-0.215-0.209c-0.09-0.053-0.19-0.089-0.303-0.107
			c-0.112-0.02-0.23-0.028-0.354-0.028h-0.905v1.39h0.653C203.031,76.484,203.178,76.48,203.325,76.47z"/>
	</g>
</g>
<g>
	<g>
		<g>
			<g>
				<path style="fill:#0461A9;" d="M213.128,32.261c-0.307,1.393-0.774,2.717-1.293,4.009c-1.179,3.096-3.12,5.884-5.305,8.542
					c-2.519,2.861-5.371,5.267-8.402,7.413c-3.844,2.591-7.923,4.499-12.376,5.546c-3.038,0.647-6.466,0.69-9.253-0.574
					c-1.944-0.719-3.644-2.073-5.278-3.506c-1.668-1.531-2.921-3.296-4.02-5.133c-0.1-0.175-0.302-0.113-0.404-0.035
					c-2.994,1.357-6.09,2.404-9.187,3.402c-3.165,0.979-7.075,0.681-9.285-1.978c-0.341-0.378-0.551-0.817-0.887-1.155
					c-0.135,0-0.276,0-0.341,0.03c-3.023,1.226-6.05,2.489-9.278,3.169c-2.459,0.544-5.006,0.063-6.951-1.23
					c-0.983-0.814-1.867-1.764-2.245-2.888c-0.676-1.863-0.539-3.95-0.51-5.924c0.102-3.255,0.448-6.5,0.555-9.791
					c-0.045-0.476-0.246-0.987-0.757-1.161c-0.684-0.237-1.501-0.102-2.208-0.03c-0.479,0.066-0.985,0.066-1.469,0.169
					c-0.07,0-0.103,0.072-0.135,0.135c-1.459,5.341-3.09,10.651-5.889,15.448c-1.388,2.346-3.706,5.206-6.524,5.681
					c-3.603,0.783-6.198-2.718-7.999-5.307c-1.226-1.747-2.378-3.541-3.674-5.24c-0.271-0.273-0.511-0.544-0.885-0.408
					c-0.444,0.165-0.744,0.579-0.984,0.952c-2.011,3.125-3.779,6.33-5.89,9.395c-0.407,0.471-0.978,0.674-1.594,0.674
					c-0.752-0.034-1.294-0.714-1.635-1.321c-1.768-3.073-3.307-6.23-4.904-9.398c-0.238-0.303-0.501-0.709-0.952-0.584
					c-0.439,0.18-0.744,0.584-1.019,0.927c-2.414,3.06-4.419,6.323-7.078,9.252c-0.779,0.788-1.867,1.429-2.957,1.029
					c-2.348-0.993-3.268-3.579-4.757-5.376c-0.482-0.649-0.791-1.403-1.468-1.91c-0.613-0.207-0.956,0.54-1.398,0.88
					c-1.941,2.316-4.185,4.669-6.873,5.925c-3.57,1.418-7.721,0.373-10.441-2.186c-2.142-2.298-3.126-5.133-3.432-8.228
					c-0.204-3.98,0.365-7.787,1.728-11.192c1.665-4.348,4.732-8.845,9.05-11.293c4.052-2.456,10.41-2.651,14.465-0.072
					c1.764,1.092,2.817,2.934,2.521,5.037c-0.18,1.804-1.401,3.746-3.203,4.322c-2.551,0.607-4.326-1.19-6.636-1.401
					c-2.62-0.373-4.694,1.702-5.922,3.747c-1.526,2.548-2.621,5.375-2.516,8.504c0.171,0.886,0.477,1.829,1.398,2.237
					c0.54,0.286,1.221,0.178,1.73-0.058c1.737-1.461,3.238-3.267,4.595-5.038c1.228-1.458,2.281-3.265,3.948-4.322
					c0.747-0.337,1.767-0.337,2.484,0.1c1.396,0.825,2.109,2.318,3.06,3.549c0.61,0.779,1.063,1.865,2.078,2.24
					c0.54,0,0.882-0.48,1.322-0.817c2.824-3.438,5.441-7.01,8.301-10.486c0.82-0.912,1.911-1.9,3.23-1.594
					c0.822,0.271,1.501,0.915,1.975,1.702c1.328,2.108,2.488,4.325,3.809,6.466c0.173,0.245,0.409,0.516,0.712,0.516
					c0.419,0,0.655-0.409,0.926-0.649c2.007-2.491,3.332-5.308,5.746-7.558c0.612-0.546,1.597-0.611,2.353-0.331
					c1.496,0.812,2.175,2.443,3.189,3.704c2.149,3.09,3.854,6.363,6.234,9.355c0.236,0.198,0.512,0.446,0.886,0.342
					c0.857-0.422,1.161-1.394,1.596-2.144c1.028-1.945,1.701-4.02,2.144-6.2c0.033-0.163-0.138-0.308-0.262-0.328
					c-2.488-1.199-3.955-3.784-3.788-6.538c0.143-2.314,1.632-4.594,3.808-5.476c2.287-0.99,5.311-0.86,7.322,0.679
					c0.992,0.75,1.494,1.834,1.942,2.892c0.033,0.04,0.06,0.067,0.13,0.1c3.37-0.138,6.601-0.474,10.002-0.211
					c1.779,0.211,3.443,1.361,4.225,3.039c0.672,1.73,0.401,3.672,0.401,5.639c-0.127,2.933-0.34,5.825-0.468,8.782
					c0.128,0.21,0,0.512,0.098,0.747c0.03,0.444,0.201,0.817,0.506,1.095c0.614,0.393,1.464,0.268,2.114,0.065
					c1.56-0.614,3.131-1.233,4.6-2.105c0.027-0.037,0.093-0.108,0.093-0.18c0.033-4.762-0.093-9.553,0.752-14.117
					c0.236-1.526,1.6-3.06,3.164-3.331c1.97-0.486,4.087-0.277,5.51,1.083c0.84,0.825,1.051,1.912,1.188,3
					c0,4.594-0.348,9.113-0.283,13.744c0.048,0.747,0.218,1.529,0.898,1.935c0.884,0.411,1.838-0.066,2.688-0.305
					c1.084-0.505,2.314-0.815,3.265-1.63c-0.717-4.28-1.153-9.18,0-13.4c0.809-4.016,3.88-7.903,7.651-9.769
					c2.969-1.596,7.112-1.699,10.268-0.406c1.574,0.546,3.01,1.388,4.366,2.408c0.103,0.041,0.24,0.041,0.336,0
					c5.649-2.711,12.724-5.637,19.184-2.711c5.148,2.343,8.786,7.623,8.85,13.262C213.549,29.572,213.308,30.86,213.128,32.261z
					 M201.845,33.304c0.982-1.622,1.15-4.212,0.095-5.849c-0.915-1.49-2.555-2.171-4.185-1.935
					c-3.095,0.545-5.719,2.282-8.468,3.643c-2.626,1.423-5.581,4.052-8.751,2.176c-1.757-1.359-2.646-3.367-2.311-5.579
					c-0.273-0.272-0.642-0.343-1.015-0.343c-1.466-0.03-2.892,0.825-3.676,2.112c-1.601,2.825-0.922,6.767-0.173,9.799
					c1.09,3.468,2.719,6.803,5.619,9.428c1.083,0.949,2.854,1.051,4.245,0.606c3.915-1.19,7.654-2.987,10.997-5.683
					c2.135-1.601,4.108-3.441,5.78-5.549C200.715,35.215,201.291,34.261,201.845,33.304z"/>
				<path style="fill:#0461A9;" d="M155.201,17.329c-1.945,1.15-4.866,1.353-6.842,0.225c-1.911-1.019-3.336-2.954-3.268-5.127
					c-0.068-2.216,1.423-4.153,3.268-5.173c2.175-1.127,5.336-1.159,7.314,0.441c1.969,1.388,2.914,3.842,2.24,6.221
					C157.504,15.307,156.457,16.535,155.201,17.329z"/>
				<path style="fill:#0461A9;" d="M41.361,13.402c-1.604,1.095-3.876,1.063-5.445-0.025c-1.293-0.95-2.452-2.351-3.948-2.929
					c-3.261-1.596-7.25-0.406-10.449,0.478c-2.615,0.779-5.134,2.173-7.141,4.22c-0.542,0.642-1.016,1.358-0.743,2.238
					c0.2,0.852,1.155,1.298,1.834,1.703c1.293,0.75,2.689,1.226,4.08,1.768c3.641,1.436,7.383,2.722,11.026,4.16
					c2.925,1.423,6.088,2.579,8.269,5.338c1.771,2.342,2.516,5.376,1.903,8.464c-0.576,5.515-5.204,10.312-9.903,12.973
					c-3.433,2.139-7.348,3.128-11.495,3.531c-3.948,0.171-7.863-0.336-11.334-1.599C5.3,52.671,2.506,50.5,1.145,47.776
					c-1.184-2.386-1.734-5.754-0.236-8.177c1.462-2.679,4.392-3.902,7.311-3.6c1.504,0.241,3.035,1.124,3.61,2.592
					c0.819,1.423-0.067,3.431,0.748,4.832c1.464,2.682,4.732,2.506,7.448,2.338c3.952-0.677,7.932-2.621,10.002-6.366
					c0.484-0.909,0.777-2.205,0.103-3.155c-1.393-1.638-3.433-2.045-5.203-2.862c-4.524-1.564-9.018-3.273-13.508-4.866
					c-4.045-1.497-9.353-4.212-9.895-9.186C0.704,14.089,3.974,9.666,8.22,6.948c5.451-3.574,11.468-5.821,18.037-6.703
					c5.615-0.683,11.494-0.07,15.753,3.541c1.902,1.692,2.647,4.283,1.829,6.731C43.439,11.673,42.45,12.727,41.361,13.402z"/>
			</g>
		</g>
	</g>
	<g>
		<path style="fill:#0461A9;" d="M214.527,16.356c0.225-0.508,0.528-0.949,0.913-1.322s0.833-0.667,1.345-0.88
			c0.512-0.212,1.055-0.318,1.63-0.318s1.116,0.106,1.624,0.318c0.508,0.213,0.952,0.507,1.333,0.88s0.684,0.814,0.908,1.322
			c0.224,0.508,0.336,1.057,0.336,1.646c0,0.604-0.112,1.163-0.336,1.675c-0.225,0.512-0.527,0.956-0.908,1.333
			s-0.825,0.67-1.333,0.879s-1.049,0.314-1.624,0.314s-1.118-0.105-1.63-0.314s-0.96-0.502-1.345-0.879s-0.688-0.821-0.913-1.333
			c-0.224-0.512-0.336-1.07-0.336-1.675C214.191,17.413,214.303,16.864,214.527,16.356z M215.216,19.43
			c0.176,0.438,0.418,0.816,0.729,1.138c0.31,0.321,0.676,0.573,1.098,0.756c0.422,0.184,0.879,0.274,1.372,0.274
			c0.485,0,0.938-0.091,1.355-0.274c0.418-0.183,0.782-0.435,1.092-0.756c0.311-0.321,0.553-0.7,0.729-1.138
			c0.176-0.437,0.264-0.912,0.264-1.428c0-0.5-0.088-0.967-0.264-1.4c-0.176-0.433-0.418-0.809-0.729-1.126
			c-0.31-0.317-0.674-0.567-1.092-0.75c-0.418-0.184-0.87-0.275-1.355-0.275c-0.493,0-0.95,0.092-1.372,0.275
			c-0.422,0.183-0.788,0.433-1.098,0.75c-0.311,0.317-0.553,0.693-0.729,1.126c-0.176,0.434-0.264,0.9-0.264,1.4
			C214.953,18.518,215.041,18.994,215.216,19.43z M218.672,15.572c0.582,0,1.014,0.115,1.294,0.347
			c0.279,0.231,0.42,0.583,0.42,1.053c0,0.441-0.123,0.765-0.37,0.97c-0.246,0.205-0.553,0.326-0.918,0.364l1.4,2.162h-0.818
			l-1.333-2.106h-0.807v2.106h-0.762v-4.896H218.672z M218.337,17.745c0.171,0,0.334-0.006,0.487-0.017
			c0.152-0.012,0.289-0.043,0.408-0.096c0.12-0.052,0.215-0.132,0.286-0.24c0.07-0.108,0.106-0.26,0.106-0.454
			c0-0.164-0.032-0.295-0.096-0.392c-0.063-0.098-0.146-0.172-0.246-0.225c-0.101-0.052-0.217-0.088-0.348-0.106
			s-0.259-0.027-0.386-0.027h-1.009v1.557H218.337z"/>
	</g>
</g>
</svg>
